# xmcd CD database file
#
# Track frame offsets:
#	150
#	22003
#	36310
#	53767
#	66784
#	82192
#	98626
#	116030
#	133463
#	149190
#	164212
#	181361
#	195397
#	209337
#	224578
#	236812
#	253787
#	273403
#	288525
#	304193
#
# Disc length: 4234 seconds
#
# Revision: 5
# Processed by: cddbd v1.4PL0 Copyright (c) Steve Scherf et al.
# Submitted via: jetAudio 5
#
DISCID=4f108814
DTITLE=Kenny Rogers - With love
DYEAR=1900
DGENRE=
TTITLE0=Have I told You lately that I love You
TTITLE1=You are so beautiful
TTITLE2=I swear
TTITLE3=As times goes by
TTITLE4=Unforgettable
TTITLE5=The wind beneath my wings
TTITLE6=Endless love
TTITLE7=Lady
TTITLE8=Unchained melody
TTITLE9=Crazy
TTITLE10=When a man loves a woman
TTITLE11=You send me
TTITLE12=Love me tender
TTITLE13=I can't help falling in love
TTITLE14=It had to be You
TTITLE15=Stardust
TTITLE16=She believes in me
TTITLE17=Misty
TTITLE18=When I fall in love
TTITLE19=I will always love You
EXTD=
EXTT0=
EXTT1=
EXTT2=
EXTT3=
EXTT4=
EXTT5=
EXTT6=
EXTT7=
EXTT8=
EXTT9=
EXTT10=
EXTT11=
EXTT12=
EXTT13=
EXTT14=
EXTT15=
EXTT16=
EXTT17=
EXTT18=
EXTT19=
PLAYORDER=
